<?xml version="1.0" encoding="UTF-8" standalone="no"?>
<svg
   xmlns:dc="http://purl.org/dc/elements/1.1/"
   xmlns:cc="http://creativecommons.org/ns#"
   xmlns:rdf="http://www.w3.org/1999/02/22-rdf-syntax-ns#"
   xmlns:svg="http://www.w3.org/2000/svg"
   xmlns="http://www.w3.org/2000/svg"
   viewBox="0 0 412.63733 128.99213"
   height="128.99213"
   width="412.63733"
   xml:space="preserve"
   id="svg2"
   version="1.1"><metadata
     id="metadata8"><rdf:RDF><cc:Work
         rdf:about=""><dc:format>image/svg+xml</dc:format><dc:type
           rdf:resource="http://purl.org/dc/dcmitype/StillImage" /></cc:Work></rdf:RDF></metadata><defs
     id="defs6"><clipPath
       id="clipPath18"
       clipPathUnits="userSpaceOnUse"><path
         id="path16"
         d="M 0,96.744 H 309.478 V 0 H 0 Z" /></clipPath></defs><g
     transform="matrix(1.3333333,0,0,-1.3333333,0,128.99213)"
     id="g10"><g
       id="g12"><g
         clip-path="url(#clipPath18)"
         id="g14"><g
           transform="translate(25.9561,42.0391)"
           id="g20"><path
             id="path22"
             style="fill:#363860;fill-opacity:1;fill-rule:nonzero;stroke:none"
             d="m 0,0 c 0,-1.525 -0.799,-2.287 -2.395,-2.287 -1.566,0 -2.349,0.762 -2.349,2.287 v 33.059 c 0,1.522 0.828,2.285 2.484,2.285 1.506,0 2.26,-0.763 2.26,-2.285 z" /></g><g
           transform="translate(66.1563,43.3667)"
           id="g24"><path
             id="path26"
             style="fill:#363860;fill-opacity:1;fill-rule:nonzero;stroke:none"
             d="m 0,0 c 0,-1.24 -0.286,-2.161 -0.858,-2.763 -0.573,-0.604 -1.236,-0.904 -1.988,-0.904 -0.361,0 -0.739,0.08 -1.13,0.239 -0.391,0.159 -0.753,0.432 -1.084,0.824 L -32.935,26.735 V -1.328 c 0,-1.561 -0.768,-2.339 -2.303,-2.339 -1.537,0 -2.305,0.778 -2.305,2.339 v 31.836 c 0,1.17 0.3,2.02 0.904,2.553 0.602,0.531 1.265,0.796 1.988,0.796 0.421,0 0.842,-0.08 1.265,-0.239 0.42,-0.16 0.798,-0.435 1.129,-0.824 L -4.654,4.04 v 27.638 c 0,1.559 0.814,2.339 2.441,2.339 1.475,0 2.213,-0.78 2.213,-2.339 z" /></g><g
           transform="translate(106.583,42.0391)"
           id="g28"><path
             id="path30"
             style="fill:#363860;fill-opacity:1;fill-rule:nonzero;stroke:none"
             d="m 0,0 c 0,-1.562 -0.784,-2.34 -2.349,-2.34 -1.537,0 -2.304,0.778 -2.304,2.34 V 14.084 H -33.024 V 0 c 0,-1.562 -0.8,-2.34 -2.395,-2.34 -1.567,0 -2.351,0.778 -2.351,2.34 v 33.005 c 0,1.56 0.814,2.339 2.441,2.339 1.536,0 2.305,-0.779 2.305,-2.339 V 18.602 h 28.371 v 14.403 c 0,1.56 0.752,2.339 2.257,2.339 1.597,0 2.396,-0.779 2.396,-2.339 z" /></g><g
           transform="translate(142.3574,67.9136)"
           id="g32"><path
             id="path34"
             style="fill:#363860;fill-opacity:1;fill-rule:nonzero;stroke:none"
             d="m 0,0 c 0,3.195 -2.531,4.792 -7.591,4.792 h -20.781 v -28.328 h 20.646 c 5.15,0 7.726,1.756 7.726,5.272 z m 4.653,-18.221 c 0,-6.485 -4.083,-9.728 -12.244,-9.728 H -31.58 c -1.024,0 -1.537,0.62 -1.537,1.861 V 7.397 c 0,1.204 0.513,1.807 1.537,1.807 H -7.5 c 8.102,0 12.153,-3.065 12.153,-9.196 z" /></g><g
           transform="translate(154.4111,60.6406)"
           id="g36"><path
             id="path38"
             style="fill:#363860;fill-opacity:1;fill-rule:nonzero;stroke:none"
             d="m 0,0 h 14.495 c 1.086,0 1.628,-0.763 1.628,-2.285 0,-1.488 -0.542,-2.233 -1.628,-2.233 H 0 v -6.994 c 0,-3.167 2.558,-4.751 7.679,-4.751 h 20.103 c 1.145,0 1.719,-0.736 1.719,-2.207 0,-1.469 -0.574,-2.206 -1.719,-2.206 H 7.499 c -8.162,0 -12.243,2.978 -12.243,8.929 V 7.281 c 0,3.048 1.054,5.342 3.162,6.884 2.108,1.541 5.287,2.312 9.532,2.312 h 12.821 c 1.083,0 1.625,-0.762 1.625,-2.286 0,-1.417 -0.542,-2.126 -1.625,-2.126 H 9.76 C 3.252,12.065 0,10.471 0,7.281 Z" /></g><g
           transform="translate(201.207,39.9648)"
           id="g40"><path
             id="path42"
             style="fill:#363860;fill-opacity:1;fill-rule:nonzero;stroke:none"
             d="m 0,0 c -9.758,0 -14.637,3.171 -14.637,9.514 v 25.619 c 0,1.522 0.783,2.285 2.348,2.285 1.598,0 2.396,-0.763 2.396,-2.288 V 9.471 c 0,-3.374 3.221,-5.058 9.668,-5.058 h 10.414 c 1.206,0 1.809,-0.789 1.809,-2.365 C 11.998,0.684 11.395,0 10.189,0 Z" /></g><g
           transform="translate(228.1562,44.6973)"
           id="g44"><path
             id="path46"
             style="fill:#334d7c;fill-opacity:1;fill-rule:nonzero;stroke:none"
             d="m 0,0 17.075,31.304 c 0.241,0.46 0.528,0.798 0.861,1.01 0.331,0.213 0.676,0.319 1.037,0.319 0.601,0 1.146,-0.249 1.627,-0.744 0.483,-0.497 0.722,-1.099 0.722,-1.807 -0.03,-0.178 -0.066,-0.392 -0.112,-0.638 -0.044,-0.249 -0.127,-0.479 -0.249,-0.692 L 2.936,-2.925 C 2.543,-3.599 2.076,-4.112 1.535,-4.466 0.993,-4.819 0.436,-4.998 -0.137,-4.998 c -0.574,0 -1.114,0.16 -1.626,0.478 -0.512,0.319 -0.965,0.832 -1.356,1.542 L -21.189,28.7 c -0.272,0.495 -0.407,0.974 -0.407,1.435 0,0.708 0.241,1.302 0.723,1.78 0.481,0.479 1.023,0.718 1.626,0.718 0.331,0 0.669,-0.099 1.017,-0.292 0.346,-0.196 0.638,-0.524 0.879,-0.984 z" /></g><g
           transform="translate(262.832,72.4922)"
           id="g48"><path
             id="path50"
             style="fill:#5171a6;fill-opacity:1;fill-rule:nonzero;stroke:none"
             d="m 0,0 -17.077,-31.303 c -0.244,-0.462 -0.529,-0.799 -0.86,-1.011 -0.332,-0.211 -0.677,-0.319 -1.037,-0.319 -0.605,0 -1.147,0.248 -1.629,0.743 -0.48,0.498 -0.722,1.1 -0.722,1.808 0.031,0.177 0.067,0.39 0.113,0.638 0.044,0.248 0.129,0.478 0.248,0.691 L -2.938,2.924 c 0.392,0.674 0.858,1.188 1.4,1.542 0.543,0.353 1.1,0.531 1.673,0.531 0.569,0 1.114,-0.158 1.626,-0.478 C 2.274,4.2 2.726,3.688 3.117,2.978 L 21.188,-28.7 c 0.271,-0.496 0.406,-0.975 0.406,-1.435 0,-0.71 -0.24,-1.303 -0.724,-1.779 -0.48,-0.481 -1.022,-0.719 -1.626,-0.719 -0.331,0 -0.67,0.098 -1.016,0.293 -0.346,0.194 -0.638,0.522 -0.881,0.984 z" /></g><g
           transform="translate(91.1504,34.5493)"
           id="g52"><path
             id="path54"
             style="fill:#334d7c;fill-opacity:1;fill-rule:nonzero;stroke:none"
             d="M 0,0 H 7.48 L 6.64,-2.409 H 2.942 V -4.23 H 6.64 V -6.416 H 2.942 v -3.39 H 0 Z" /></g><g
           transform="translate(112.7432,30.2622)"
           id="g56"><path
             id="path58"
             style="fill:#334d7c;fill-opacity:1;fill-rule:nonzero;stroke:none"
             d="m 0,0 c 0,-0.826 -0.602,-1.429 -1.429,-1.429 h -0.126 l 2.158,-4.09 h -3.026 l -2.619,5.295 h 2.101 v 2.102 h -2.423 v -7.397 h -2.943 v 9.806 h 6.598 C -0.714,4.287 0,3.572 0,2.578 Z" /></g><g
           transform="translate(119.2207,34.5493)"
           id="g60"><path
             id="path62"
             style="fill:#334d7c;fill-opacity:1;fill-rule:nonzero;stroke:none"
             d="M 0,0 H 7.479 L 6.64,-2.409 H 2.941 V -3.923 H 6.64 V -5.771 H 2.941 V -7.396 H 7.479 L 6.64,-9.806 H 0 Z" /></g><g
           transform="translate(132.9971,34.5493)"
           id="g64"><path
             id="path66"
             style="fill:#334d7c;fill-opacity:1;fill-rule:nonzero;stroke:none"
             d="M 0,0 H 7.479 L 6.64,-2.409 H 2.941 V -3.923 H 6.64 V -5.771 H 2.941 V -7.396 H 7.479 L 6.64,-9.806 H 0 Z" /></g><g
           transform="translate(157.0918,32.1401)"
           id="g68"><path
             id="path70"
             style="fill:#334d7c;fill-opacity:1;fill-rule:nonzero;stroke:none"
             d="m 0,0 h -3.039 l 0.84,2.409 H 5.562 V 0 H 2.941 V -7.396 H 0 Z" /></g><g
           transform="translate(176.9043,30.2622)"
           id="g72"><path
             id="path74"
             style="fill:#334d7c;fill-opacity:1;fill-rule:nonzero;stroke:none"
             d="m 0,0 c 0,-0.826 -0.602,-1.429 -1.429,-1.429 h -0.126 l 2.158,-4.09 h -3.026 l -2.619,5.295 h 2.101 v 2.102 h -2.423 v -7.397 h -2.943 v 9.806 h 6.598 C -0.714,4.287 0,3.572 0,2.578 Z" /></g><g
           transform="translate(185.2178,34.5493)"
           id="g76"><path
             id="path78"
             style="fill:#334d7c;fill-opacity:1;fill-rule:nonzero;stroke:none"
             d="M 0,0 H 4.958 L 7.62,-9.806 H 1.904 v 2.129 H 3.823 L 2.703,-2.83 H 2.143 L 0.392,-9.806 h -3.068 z" /></g><path
           id="path80"
           style="fill:#334d7c;fill-opacity:1;fill-rule:nonzero;stroke:none"
           d="m 203.741,32.14 h -2.297 v -4.987 h 2.297 z m -5.239,-7.396 v 9.805 h 6.472 c 0.995,0 1.709,-0.715 1.709,-1.709 v -6.387 c 0,-0.995 -0.714,-1.709 -1.709,-1.709 z" /><g
           transform="translate(213.1182,34.5493)"
           id="g82"><path
             id="path84"
             style="fill:#334d7c;fill-opacity:1;fill-rule:nonzero;stroke:none"
             d="M 0,0 H 7.479 L 6.64,-2.409 H 2.941 V -3.923 H 6.64 V -5.771 H 2.941 V -7.396 H 7.479 L 6.64,-9.806 H 0 Z" /></g><g
           transform="translate(234.8037,26.8726)"
           id="g86"><path
             id="path88"
             style="fill:#334d7c;fill-opacity:1;fill-rule:nonzero;stroke:none"
             d="M 0,0 3.853,5.268 H 0 V 7.677 H 7.62 V 5.547 L 3.769,0.28 H 8.04 L 7.2,-2.129 H 0 Z" /></g><path
           id="path90"
           style="fill:#334d7c;fill-opacity:1;fill-rule:nonzero;stroke:none"
           d="m 254.028,32.14 h -2.577 v -4.987 h 2.577 z m 1.233,2.409 c 0.995,0 1.709,-0.715 1.709,-1.709 v -6.387 c 0,-0.995 -0.714,-1.709 -1.709,-1.709 h -5.042 c -0.995,0 -1.709,0.714 -1.709,1.709 v 6.387 c 0,0.994 0.714,1.709 1.709,1.709 z" /><g
           transform="translate(271.6562,24.7437)"
           id="g92"><path
             id="path94"
             style="fill:#334d7c;fill-opacity:1;fill-rule:nonzero;stroke:none"
             d="M 0,0 H -2.941 V 7.396 H -5.519 V 0 h -2.942 v 9.806 h 6.752 C -0.714,9.806 0,9.091 0,8.097 Z" /></g><g
           transform="translate(278.0918,34.5493)"
           id="g96"><path
             id="path98"
             style="fill:#334d7c;fill-opacity:1;fill-rule:nonzero;stroke:none"
             d="M 0,0 H 7.479 L 6.64,-2.409 H 2.941 V -3.923 H 6.64 V -5.771 H 2.941 V -7.396 H 7.479 L 6.64,-9.806 H 0 Z" /></g></g></g></g></svg>